<svg xmlns="http://www.w3.org/2000/svg" version="1.1" xmlns:xlink="http://www.w3.org/1999/xlink" xmlns:svgjs="http://svgjs.dev/svgjs" width="128" height="128" viewBox="0 0 2000 2000"><g transform="matrix(1,0,0,1,-0.28443113772425477,-0.28443113772459583)"><svg viewBox="0 0 334 334" data-background-color="#ffffff" preserveAspectRatio="xMidYMid meet" height="2000" width="2000" xmlns="http://www.w3.org/2000/svg" xmlns:xlink="http://www.w3.org/1999/xlink"><g id="tight-bounds" transform="matrix(1,0,0,1,0.04749999999998522,0.04750000000001364)"><svg viewBox="0 0 333.90454557049503 333.90454557049503" height="333.90454557049503" width="333.90454557049503"><g><svg></svg></g><g><svg viewBox="0 0 333.90454557049503 333.90454557049503" height="333.90454557049503" width="333.90454557049503"><g><path d="M0 166.952c0-92.205 74.747-166.952 166.952-166.952 92.205 0 166.952 74.747 166.953 166.952 0 92.205-74.747 166.952-166.953 166.953-92.205 0-166.952-74.747-166.952-166.953zM166.952 323.227c86.308 0 156.274-69.966 156.275-156.275 0-86.308-69.966-156.274-156.275-156.274-86.308 0-156.274 69.966-156.274 156.274 0 86.308 69.966 156.274 156.274 156.275z" data-fill-palette-color="tertiary" fill="#060e9e" stroke="transparent"></path><ellipse rx="160.27418187383762" ry="160.27418187383762" cx="166.95227278524752" cy="166.95227278524752" fill="#060e9e" stroke="transparent" stroke-width="0" fill-opacity="1" data-fill-palette-color="tertiary"></ellipse></g><g transform="matrix(1,0,0,1,142.40288617969316,71.17305217166896)"><svg viewBox="0 0 49.09877321110875 191.55844122715712" height="191.55844122715712" width="49.09877321110875"><g><svg viewBox="0 0 49.09877321110875 191.55844122715712" height="191.55844122715712" width="49.09877321110875"><g><svg viewBox="0 0 49.09877321110875 191.55844122715712" height="191.55844122715712" width="49.09877321110875"><g><svg viewBox="0 0 49.09877321110875 191.55844122715712" height="191.55844122715712" width="49.09877321110875"><g id="textblocktransform"><svg viewBox="0 0 49.09877321110875 191.55844122715712" height="191.55844122715712" width="49.09877321110875" id="textblock"><g><svg viewBox="0 0 49.09877321110875 191.55844122715712" height="191.55844122715712" width="49.09877321110875"><g transform="matrix(1,0,0,1,0,0)"><svg width="49.09877321110875" viewBox="-0.34 -37.99 12.77 49.818688272838" height="191.55844122715712" data-palette-color="#ffffff"><path d="M2.61-33.11L2.61-33.11Q2.61-33.42 2.8-33.65 2.98-33.89 3.3-34.28L3.3-34.28Q3.98-35.06 4.87-35.9 5.76-36.74 6.67-37.52L6.67-37.52Q7.23-37.99 7.52-37.99L7.52-37.99Q7.81-37.99 8.4-37.52L8.4-37.52Q10.3-35.89 11.72-34.28L11.72-34.28Q12.01-33.91 12.22-33.67 12.43-33.42 12.43-33.11L12.43-33.11Q12.43-32.79 12.22-32.56 12.01-32.32 11.69-31.91L11.69-31.91Q11.04-31.15 10.17-30.32 9.3-29.49 8.4-28.71L8.4-28.71Q8.08-28.42 7.89-28.33 7.69-28.25 7.52-28.25L7.52-28.25Q7.35-28.25 7.17-28.33 6.98-28.42 6.62-28.71L6.62-28.71Q5.64-29.49 4.81-30.33 3.98-31.18 3.3-31.96L3.3-31.96Q2.98-32.35 2.8-32.57 2.61-32.79 2.61-33.11ZM3.64-1.93L3.64-1.93 3.64-23.71Q3.64-24.44 3.94-24.72 4.25-25 4.98-25L4.98-25 10.01-25Q10.74-25 11.05-24.72 11.35-24.44 11.35-23.71L11.35-23.71 11.35-0.44Q11.35 3.34 10.33 5.73 9.3 8.11 7.74 9.48 6.18 10.86 4.57 11.67L4.57 11.67Q3.69 12.11 3.03 11.33L3.03 11.33 0.05 7.69Q-0.34 7.23-0.34 6.9-0.34 6.57 0.17 6.23L0.17 6.23Q0.71 5.86 1.53 5.1 2.34 4.35 2.99 2.7 3.64 1.05 3.64-1.93Z" opacity="1" transform="matrix(1,0,0,1,0,0)" fill="#ffffff" class="wordmark-text-0" data-fill-palette-color="quaternary" id="text-0"></path></svg></g></svg></g></svg></g></svg></g><g></g></svg></g></svg></g></svg></g></svg></g><defs></defs></svg><rect width="333.90454557049503" height="333.90454557049503" fill="none" stroke="none" visibility="hidden"></rect></g></svg></g></svg>